<svg fill="#000200" fill-rule="evenodd" height="60" width="120" xmlns="http://www.w3.org/2000/svg"><path d="m13.554779 21.975906c-.26738-.160428-.561498-.240641-.935829-.240641-.40107 0-.721925.08021-.962567.240641-.240642.160428-.374332.374332-.374332.641711v17.620321c0 .213904.13369.427808.374332.614974.26738.187165.561497.294117.935829.294117a1.6203209 1.6203209 0 0 0 .935829-.294117c.267379-.187166.401069-.40107.401069-.614974v-17.620321c.02674-.267379-.106952-.481283-.374331-.641711m2.219251 9.251337c-.160428.160428-.240642.374332-.187166.695187.02674.320856.160428.614974.427808.882353.240641.26738.534759.454546.855615.53476.320855.08021.561497.02674.721925-.106952l1.417112-.882353v7.8877c0 .213904.13369.427808.374332.614974.240641.187165.561497.294117.935828.294117.374332 0 .695188-.106952.962567-.294117.26738-.187166.40107-.40107.40107-.614974v-10.641711c0-.26738-.13369-.454545-.40107-.614973-.267379-.160428-.588235-.240642-.989305-.240642-.401069 0-.695187.08021-.935828.240642zm10.561497 6.229947c0 .534759.160428.962567.454545 1.229946.294118.26738.695188.427808 1.176471.427808.641711 0 1.256684-.26738 1.818182-.802139.588235-.53476.882353-1.122995.882353-1.737968v-.935829h-.641711c-.748664 0-1.363637.02674-1.84492.106952-.481284.08021-.909091.240641-1.283423.534759-.374331.26738-.561497.668449-.561497 1.176471zm-2.673797.320855c0-1.363636.508022-2.299465 1.524064-2.834224 1.016043-.53476 2.459893-.802139 4.385027-.802139h1.096257v-.481284c0-.775401-.213904-1.417112-.614974-1.978609-.401069-.561498-1.04278-.828877-1.871657-.828877-.721925 0-1.363637.133689-1.898396.427807-.534759.26738-.855615.427808-.909091.427808-.294118 0-.508021-.13369-.695187-.427808-.187166-.26738-.26738-.588235-.26738-.935829 0-.427807.40107-.828877 1.229947-1.149732.802139-.320856 1.684492-.481284 2.593583-.481284 1.737968 0 3.02139.481284 3.850267 1.417112.828877.935829 1.256685 2.1123 1.256685 3.529412v6.363637c0 .240641-.13369.454545-.374332.614973-.240642.187166-.561497.26738-.909091.26738s-.614973-.08021-.855615-.26738c-.240642-.187166-.347593-.374332-.347593-.614973v-.882353c-1.122995 1.31016-2.406418 1.978609-3.796792 1.978609-.989305 0-1.791444-.294117-2.406417-.855615-.668449-.561497-.989305-1.390374-.989305-2.486631zm11.951872-1.684492v-2.299465c0-1.497326.427807-2.727273 1.31016-3.663102.882353-.935828 2.165776-1.390374 3.903744-1.390374 1.096256 0 2.005347.187166 2.75401.561497.748663.374332 1.122995.802139 1.122995 1.283423 0 .294118-.106952.588235-.320856.855615-.213903.294118-.454545.427807-.748663.427807-.08021 0-.374331-.133689-.909091-.374331-.508021-.240642-1.069518-.374332-1.71123-.374332-1.844919 0-2.780748.882353-2.780748 2.673797v2.272727c0 1.791444.935829 2.673797 2.807486 2.673797.641712 0 1.203209-.13369 1.737968-.401069.508022-.26738.828877-.40107.909091-.40107.347594 0 .614973.13369.828877.40107.213904.267379.320856.561497.320856.855615 0 .481283-.374332.90909-1.149733 1.31016s-1.71123.614973-2.834224.614973c-1.737968 0-3.048129-.454545-3.930482-1.390374-.855615-.882353-1.31016-2.1123-1.31016-3.636364m11.17647 3.95722v-17.459894c0-.267379.106952-.454545.347594-.614973s.534759-.240641.935829-.240641c.374331 0 .721925.08021.962567.240641.267379.160428.401069.374332.401069.614973v11.310161l5.26738-4.86631c.160428-.160428.347593-.240642.561497-.240642.294118 0 .561498.13369.855615.40107.294118.267379.427808.561497.427808.855615 0 .213903-.08021.401069-.213904.561497l-3.262032 2.914438 3.957219 5.748663c.106952.160428.160428.294118.160428.454546 0 .294118-.160428.614973-.508021.909091-.347594.294117-.66845.454545-.989305.454545-.294118 0-.508022-.13369-.695187-.374331l-3.716578-5.508022-1.84492 1.684492v3.181819c0 .213903-.13369.427807-.401069.614973-.26738.187166-.588236.267379-.962567.267379-.374332 0-.668449-.08021-.909091-.267379-.240642-.213904-.374332-.427808-.374332-.641711m14.037434-6.122995h4.197861c.374331 0 .614973-.05348.748663-.160428.133689-.106952.187165-.294118.187165-.614973 0-.668449-.240641-1.229947-.721925-1.71123-.481283-.454546-1.096256-.695187-1.818182-.695187-.695187 0-1.31016.213903-1.818181.668449-.508022.454545-.748663 1.016043-.748663 1.684492v.828877zm-2.647059 2.165775v-2.406417c0-1.336898.508021-2.486631 1.550802-3.475936 1.016043-.962566 2.272727-1.470588 3.716577-1.470588 1.390375 0 2.566845.454546 3.55615 1.310161.989305.882352 1.470588 1.978609 1.470588 3.342246 0 .508021-.05348.935828-.187165 1.256684-.106952.320856-.294118.534759-.561498.668449-.240641.13369-.481283.213904-.695187.240642-.213904.02674-.508021.05348-.855615.05348h-5.320855v.588235c0 .855615.294117 1.524064.90909 2.032086.614974.508021 1.390375.748663 2.37968.748663.695187 0 1.336898-.160428 1.951871-.481284.614973-.320855.989305-.481283 1.122995-.481283.294118 0 .534759.13369.721925.40107.213904.267379.294118.534759.294118.802139 0 .427807-.40107.828877-1.203209 1.283422-.802139.427807-1.791444.641711-2.967914.641711-1.71123 0-3.128343-.454545-4.224599-1.390374-1.122995-.935829-1.657754-2.165776-1.657754-3.663102zm12.406417 3.95722v-10.294118c0-.26738.13369-.454546.374331-.614973.240642-.160428.561498-.240642.935829-.240642.320856 0 .614974.08021.855615.240642.240642.160427.347594.374331.347594.641711v1.122995c.294117-.588236.721925-1.096257 1.31016-1.524065.588236-.427807 1.203209-.641711 1.898396-.641711h.802139c.26738 0 .508021.106952.695187.347594.213904.240641.294118.508021.294118.828877 0 .320855-.106952.614973-.294118.855615-.213904.240641-.427807.347593-.695187.347593h-.802139c-.802139 0-1.524064.347594-2.139037 1.042781-.614974.695187-.909091 1.57754-.909091 2.673797v5.187166c0 .213903-.13369.427807-.40107.614973s-.588235.26738-.962567.26738c-.374331 0-.668449-.08021-.935829-.26738-.267379-.160428-.374331-.374332-.374331-.588235m9.893048-3.770054c0 .855615.294118 1.631016.909091 2.299465.614973.66845 1.363636.989305 2.219251.989305.882353 0 1.631016-.320855 2.24599-.989305.614973-.668449.935828-1.417112.935828-2.299465v-2.754011c0-.828877-.320855-1.57754-.935828-2.219251-.641712-.668449-1.363637-.989305-2.219252-.989305s-1.604278.320856-2.219251.989305-.909091 1.390374-.909091 2.219251v2.754011zm-1.631016 0v-2.754011c0-1.283422.481283-2.406417 1.417112-3.342246.935829-.935828 2.058824-1.417112 3.368984-1.417112 1.283423 0 2.433155.454546 3.368984 1.390374.962567.935829 1.44385 2.058824 1.44385 3.342246v2.754011c0 1.256685-.481283 2.379679-1.44385 3.368984-.962567.962567-2.085561 1.470588-3.368984 1.470588-1.256684 0-2.379679-.481283-3.342246-1.470588-.962567-.935829-1.44385-2.058823-1.44385-3.342246zm11.57754 3.983957v-10.721925c0-.187166.08021-.320855.213904-.454545.160428-.106952.347593-.160428.588235-.160428.213904 0 .374332.05348.534759.187166.160428.13369.213904.267379.213904.427807v1.176471c.294118-.561498.721925-1.016043 1.310161-1.390375.588235-.374331 1.283422-.561497 2.058823-.561497 1.203209 0 2.272727.454546 3.15508 1.390374.882353.935829 1.336899 2.058824 1.336899 3.342246v6.764706c0 .213904-.08021.374332-.240642.481284-.160428.106952-.374332.187165-.588235.187165-.213904 0-.374332-.05348-.561498-.187165-.160427-.106952-.240641-.26738-.240641-.481284v-6.737968c0-.828877-.320856-1.57754-.935829-2.219251-.614973-.668449-1.363637-.989305-2.219252-.989305-.802139 0-1.497326.294118-2.085561.882353-.614973.588235-.909091 1.363637-.909091 2.326203v6.737968c0 .160428-.08021.320856-.26738.454546-.160427.13369-.347593.213903-.588235.213903s-.427807-.08021-.588235-.213903c-.106952-.106952-.187166-.26738-.187166-.454546m12.967914-6.069518h5.05348c.50802 0 .82887-.05348 1.01604-.160428.16043-.106952.24064-.347594.24064-.695187 0-.828877-.29412-1.577541-.90909-2.219252-.58823-.641711-1.3369-.962567-2.24599-.962567-.88235 0-1.63101.294118-2.24599.909091-.61497.614974-.90909 1.336899-.90909 2.165776zm-1.63102 2.085561v-2.834225c0-1.283422.48129-2.379679 1.41712-3.28877.93583-.90909 2.08556-1.390374 3.39572-1.390374 1.28342 0 2.37968.454546 3.31551 1.310161.93583.882352 1.39037 1.978609 1.39037 3.315508 0 .481283-.0535.855615-.16043 1.149732-.10695.294118-.29411.481284-.53476.614973-.24064.106952-.45454.187166-.66844.240642-.21391.02674-.48129.05348-.82888.05348h-5.69519v.935829c0 .989305.34759 1.791444 1.06952 2.406417.72192.588235 1.63102.909091 2.75401.909091.5615 0 1.06952-.08021 1.49733-.26738a4.7780749 4.7780749 0 0 0 .9893-.508021c.24064-.160428.40107-.26738.53476-.26738.18717 0 .34759.08021.48128.26738.13369.187166.21391.347593.21391.508021 0 .347594-.37433.721925-1.09626 1.096257-.72192.374332-1.63101.561497-2.70053.561497-1.60428 0-2.8877-.454545-3.90375-1.336898-.96256-.855615-1.47059-2.032086-1.47059-3.475936zm0 0" stroke-width=".26738"/></svg>